{
  "accessors": [
    {
      "bufferView": 2,
      "componentType": 5126,
      "count": 4066,
      "max": [
        0.8684382438659668,
        0.9385707378387451,
        4.613269329071045
      ],
      "min": [
        -0.8684382438659668,
        -0.9385707378387451,
        -4.613268852233887
      ],
      "type": "VEC3"
    },
    {
      "bufferView": 2,
      "byteOffset": 48792,
      "componentType": 5126,
      "count": 4066,
      "max": [
        1.0,
        1.0,
        1.0
      ],
      "min": [
        -1.0,
        -1.0,
        -1.0
      ],
      "type": "VEC3"
    },
    {
      "bufferView": 3,
      "componentType": 5126,
      "count": 4066,
      "max": [
        1.0,
        1.0,
        1.0,
        1.0
      ],
      "min": [
        -1.0,
        -1.0,
        -1.0,
        -1.0
      ],
      "type": "VEC4"
    },
    {
      "bufferView": 1,
      "componentType": 5126,
      "count": 4066,
      "max": [
        0.991581380367279,
        0.9919999837875366
      ],
      "min": [
        0.00800000037997961,
        0.03624743968248367
      ],
      "type": "VEC2"
    },
    {
      "bufferView": 0,
      "componentType": 5125,
      "count": 13032,
      "type": "SCALAR"
    },
    {
      "bufferView": 2,
      "byteOffset": 97584,
      "componentType": 5126,
      "count": 314,
      "max": [
        0.14709937572479248,
        1.0836684703826904,
        0.3282640874385834
      ],
      "min": [
        -0.14709940552711487,
        -0.30039480328559875,
        -0.6492778062820435
      ],
      "type": "VEC3"
    },
    {
      "bufferView": 2,
      "byteOffset": 101352,
      "componentType": 5126,
      "count": 314,
      "max": [
        1.0,
        1.0,
        1.0
      ],
      "min": [
        -1.0,
        -0.9876563549041748,
        -1.0
      ],
      "type": "VEC3"
    },
    {
      "bufferView": 3,
      "byteOffset": 65056,
      "componentType": 5126,
      "count": 314,
      "max": [
        1.0,
        9.2307134764269e-05,
        0.3523542284965515,
        1.0
      ],
      "min": [
        -2.9710072340094484e-06,
        -0.9359439611434937,
        -0.9365224242210388,
        1.0
      ],
      "type": "VEC4"
    },
    {
      "bufferView": 1,
      "byteOffset": 32528,
      "componentType": 5126,
      "count": 314,
      "max": [
        0.9836090803146362,
        0.8863270878791809
      ],
      "min": [
        0.7485769987106323,
        0.036264464259147644
      ],
      "type": "VEC2"
    },
    {
      "bufferView": 1,
      "byteOffset": 35040,
      "componentType": 5126,
      "count": 314,
      "max": [
        1.0,
        1.0
      ],
      "min": [
        0.0,
        0.0
      ],
      "type": "VEC2"
    },
    {
      "bufferView": 0,
      "byteOffset": 52128,
      "componentType": 5125,
      "count": 708,
      "type": "SCALAR"
    },
    {
      "bufferView": 2,
      "byteOffset": 105120,
      "componentType": 5126,
      "count": 1100,
      "max": [
        0.528103232383728,
        5.189195156097412,
        -1.862492561340332
      ],
      "min": [
        -0.5264194011688232,
        0.03287053108215332,
        -4.656987190246582
      ],
      "type": "VEC3"
    },
    {
      "bufferView": 2,
      "byteOffset": 118320,
      "componentType": 5126,
      "count": 1100,
      "max": [
        1.0,
        1.0,
        0.9999999403953552
      ],
      "min": [
        -1.0,
        -1.0,
        -1.0
      ],
      "type": "VEC3"
    },
    {
      "bufferView": 3,
      "byteOffset": 70080,
      "componentType": 5126,
      "count": 1100,
      "max": [
        1.0,
        0.9999998211860657,
        1.0,
        1.0
      ],
      "min": [
        -1.0,
        -1.0,
        -1.0,
        1.0
      ],
      "type": "VEC4"
    },
    {
      "bufferView": 1,
      "byteOffset": 37552,
      "componentType": 5126,
      "count": 1100,
      "max": [
        0.9919999837875366,
        0.9871206879615784
      ],
      "min": [
        0.00800000037997961,
        0.03625643998384476
      ],
      "type": "VEC2"
    },
    {
      "bufferView": 0,
      "byteOffset": 54960,
      "componentType": 5125,
      "count": 3648,
      "type": "SCALAR"
    },
    {
      "bufferView": 2,
      "byteOffset": 131520,
      "componentType": 5126,
      "count": 666,
      "max": [
        0.24505949020385742,
        5.08516263961792,
        -1.9247380495071411
      ],
      "min": [
        -0.24505949020385742,
        4.595044136047363,
        -3.6807360649108887
      ],
      "type": "VEC3"
    },
    {
      "bufferView": 2,
      "byteOffset": 139512,
      "componentType": 5126,
      "count": 666,
      "max": [
        1.0,
        1.0,
        1.0
      ],
      "min": [
        -1.0,
        -0.9914467930793762,
        -1.0
      ],
      "type": "VEC3"
    },
    {
      "bufferView": 3,
      "byteOffset": 87680,
      "componentType": 5126,
      "count": 666,
      "max": [
        1.0,
        1.0,
        0.7836015224456787,
        1.0
      ],
      "min": [
        -0.9944130778312683,
        -1.0,
        -0.7820595502853394,
        1.0
      ],
      "type": "VEC4"
    },
    {
      "bufferView": 1,
      "byteOffset": 46352,
      "componentType": 5126,
      "count": 666,
      "max": [
        0.9830586314201355,
        0.984846830368042
      ],
      "min": [
        0.033189695328474045,
        0.0465020090341568
      ],
      "type": "VEC2"
    },
    {
      "bufferView": 0,
      "byteOffset": 69552,
      "componentType": 5125,
      "count": 2436,
      "type": "SCALAR"
    },
    {
      "bufferView": 2,
      "byteOffset": 147504,
      "componentType": 5126,
      "count": 8600,
      "max": [
        0.8173547983169556,
        6.374878406524658,
        5.058923244476318
      ],
      "min": [
        -0.8173547983169556,
        0.19709591567516327,
        -6.081377029418945
      ],
      "type": "VEC3"
    },
    {
      "bufferView": 2,
      "byteOffset": 250704,
      "componentType": 5126,
      "count": 8600,
      "max": [
        1.0,
        1.0,
        1.0
      ],
      "min": [
        -1.0,
        -1.0,
        -1.0
      ],
      "type": "VEC3"
    },
    {
      "bufferView": 3,
      "byteOffset": 98336,
      "componentType": 5126,
      "count": 8600,
      "max": [
        1.0,
        1.0,
        1.0,
        1.0
      ],
      "min": [
        -1.0,
        -1.0,
        -1.0,
        -1.0
      ],
      "type": "VEC4"
    },
    {
      "bufferView": 1,
      "byteOffset": 51680,
      "componentType": 5126,
      "count": 8600,
      "max": [
        0.989327609539032,
        0.9880256652832031
      ],
      "min": [
        0.00800000037997961,
        0.00800000037997961
      ],
      "type": "VEC2"
    },
    {
      "bufferView": 1,
      "byteOffset": 120480,
      "componentType": 5126,
      "count": 8600,
      "max": [
        1.541741967201233,
        2.105748176574707
      ],
      "min": [
        -0.9976744055747986,
        -0.041136011481285095
      ],
      "type": "VEC2"
    },
    {
      "bufferView": 0,
      "byteOffset": 79296,
      "componentType": 5125,
      "count": 27126,
      "type": "SCALAR"
    },
    {
      "bufferView": 4,
      "componentType": 5126,
      "count": 133,
      "max": [
        10.0
      ],
      "min": [
        0.0416666679084301
      ],
      "type": "SCALAR"
    },
    {
      "bufferView": 5,
      "componentType": 5126,
      "count": 133,
      "max": [
        2.9802322387695313e-08,
        5.431065559387207,
        -0.2910388708114624
      ],
      "min": [
        2.9802322387695313e-08,
        5.431065559387207,
        -3.2550225257873535
      ],
      "type": "VEC3"
    },
    {
      "bufferView": 4,
      "byteOffset": 532,
      "componentType": 5126,
      "count": 48,
      "max": [
        10.0
      ],
      "min": [
        0.0416666679084301
      ],
      "type": "SCALAR"
    },
    {
      "bufferView": 6,
      "componentType": 5126,
      "count": 48,
      "max": [
        0.0,
        0.0,
        0.0,
        1.0
      ],
      "min": [
        -0.5519369840621948,
        0.0,
        0.0,
        0.8338858485221863
      ],
      "type": "VEC4"
    }
  ],
  "animations": [
    {
      "channels": [
        {
          "sampler": 0,
          "target": {
            "node": 5,
            "path": "translation"
          }
        },
        {
          "sampler": 1,
          "target": {
            "node": 7,
            "path": "rotation"
          }
        }
      ],
      "name": "Take 001",
      "samplers": [
        {
          "input": 27,
          "interpolation": "LINEAR",
          "output": 28
        },
        {
          "input": 29,
          "interpolation": "LINEAR",
          "output": 30
        }
      ]
    }
  ],
  "asset": {
    "extras": {
      "author": "Minte Elseviers (https://sketchfab.com/Minte_Elseviers)",
      "license": "CC-BY-4.0 (http://creativecommons.org/licenses/by/4.0/)",
      "source": "https://sketchfab.com/3d-models/desert-eagle-334462df58b942759122567fa0b81113",
      "title": "Desert Eagle"
    },
    "generator": "Sketchfab-12.67.0",
    "version": "2.0"
  },
  "bufferViews": [
    {
      "buffer": 0,
      "byteLength": 187800,
      "name": "floatBufferViews",
      "target": 34963
    },
    {
      "buffer": 0,
      "byteLength": 189280,
      "byteOffset": 187800,
      "byteStride": 8,
      "name": "floatBufferViews",
      "target": 34962
    },
    {
      "buffer": 0,
      "byteLength": 353904,
      "byteOffset": 377080,
      "byteStride": 12,
      "name": "floatBufferViews",
      "target": 34962
    },
    {
      "buffer": 0,
      "byteLength": 235936,
      "byteOffset": 730984,
      "byteStride": 16,
      "name": "floatBufferViews",
      "target": 34962
    },
    {
      "buffer": 0,
      "byteLength": 724,
      "byteOffset": 966920,
      "name": "floatBufferViews"
    },
    {
      "buffer": 0,
      "byteLength": 1596,
      "byteOffset": 967644,
      "byteStride": 12,
      "name": "floatBufferViews"
    },
    {
      "buffer": 0,
      "byteLength": 768,
      "byteOffset": 969240,
      "byteStride": 16,
      "name": "floatBufferViews"
    }
  ],
  "buffers": [
    {
      "byteLength": 970008,
      "uri": "scene.bin"
    }
  ],
  "images": [
    {
      "uri": "textures/DesertEagle_baseColor.png"
    },
    {
      "uri": "textures/DesertEagle_metallicRoughness.png"
    },
    {
      "uri": "textures/DesertEagle_normal.png"
    }
  ],
  "materials": [
    {
      "doubleSided": true,
      "name": "DesertEagle",
      "normalTexture": {
        "index": 2
      },
      "occlusionTexture": {
        "index": 1
      },
      "pbrMetallicRoughness": {
        "baseColorTexture": {
          "index": 0
        },
        "metallicRoughnessTexture": {
          "index": 1
        }
      }
    }
  ],
  "meshes": [
    {
      "name": "Barrel_Lowpoly_DesertEagle_0",
      "primitives": [
        {
          "attributes": {
            "NORMAL": 1,
            "POSITION": 0,
            "TANGENT": 2,
            "TEXCOORD_0": 3
          },
          "indices": 4,
          "material": 0,
          "mode": 4
        }
      ]
    },
    {
      "name": "Back_Hammer_Lowpoly_DesertEagle_0",
      "primitives": [
        {
          "attributes": {
            "NORMAL": 6,
            "POSITION": 5,
            "TANGENT": 7,
            "TEXCOORD_0": 8,
            "TEXCOORD_1": 9
          },
          "indices": 10,
          "material": 0,
          "mode": 4
        }
      ]
    },
    {
      "name": "Magazine_Lowpoly_DesertEagle_0",
      "primitives": [
        {
          "attributes": {
            "NORMAL": 12,
            "POSITION": 11,
            "TANGENT": 13,
            "TEXCOORD_0": 14
          },
          "indices": 15,
          "material": 0,
          "mode": 4
        }
      ]
    },
    {
      "name": "DesertEagle44Bullet_Lowpoly_DesertEagle_0",
      "primitives": [
        {
          "attributes": {
            "NORMAL": 17,
            "POSITION": 16,
            "TANGENT": 18,
            "TEXCOORD_0": 19
          },
          "indices": 20,
          "material": 0,
          "mode": 4
        }
      ]
    },
    {
      "name": "Gun_Lowpoly_DesertEagle_0",
      "primitives": [
        {
          "attributes": {
            "NORMAL": 22,
            "POSITION": 21,
            "TANGENT": 23,
            "TEXCOORD_0": 24,
            "TEXCOORD_1": 25
          },
          "indices": 26,
          "material": 0,
          "mode": 4
        }
      ]
    }
  ],
  "nodes": [
    {
      "children": [
        1
      ],
      "matrix": [
        0.9901389479637146,
        0.13997063040733337,
        -0.005753463599830835,
        0.0,
        -0.014884186908602715,
        0.06427408754825614,
        -0.9978212714195251,
        0.0,
        -0.13929587602615356,
        0.9880673289299011,
        0.06572362780571006,
        0.0,
        0.045389652252197266,
        0.0005371522856876301,
        -0.021168438717722893,
        1.0
      ],
      "name": "Sketchfab_model"
    },
    {
      "children": [
        2
      ],
      "matrix": [
        0.009999999776482582,
        0.0,
        0.0,
        0.0,
        0.0,
        0.0,
        0.009999999776482582,
        0.0,
        0.0,
        -0.009999999776482582,
        0.0,
        0.0,
        0.0,
        0.0,
        0.0,
        1.0
      ],
      "name": "df285c1e2b59453ebc3ac44d3f36714e.fbx"
    },
    {
      "children": [
        3
      ],
      "name": "Object_2"
    },
    {
      "children": [
        4
      ],
      "name": "RootNode"
    },
    {
      "children": [
        5,
        7,
        9,
        11,
        13
      ],
      "name": "Desert_Eagle_Lowpoly",
      "scale": [
        10.0,
        10.0,
        10.0
      ]
    },
    {
      "children": [
        6
      ],
      "name": "Barrel_Lowpoly",
      "translation": [
        2.9802322387695313e-08,
        5.431065559387207,
        -0.2910388708114624
      ]
    },
    {
      "mesh": 0,
      "name": "Barrel_Lowpoly_DesertEagle_0"
    },
    {
      "children": [
        8
      ],
      "name": "Back_Hammer_Lowpoly",
      "translation": [
        7.450580596923828e-09,
        4.631044864654541,
        -4.5983991622924805
      ]
    },
    {
      "mesh": 1,
      "name": "Back_Hammer_Lowpoly_DesertEagle_0"
    },
    {
      "children": [
        10
      ],
      "name": "Magazine_Lowpoly"
    },
    {
      "mesh": 2,
      "name": "Magazine_Lowpoly_DesertEagle_0"
    },
    {
      "children": [
        12
      ],
      "name": "DesertEagle44Bullet_Lowpoly",
      "translation": [
        0.0004495375615078956,
        0.0,
        -0.00541969807818532
      ]
    },
    {
      "mesh": 3,
      "name": "DesertEagle44Bullet_Lowpoly_DesertEagle_0"
    },
    {
      "children": [
        14
      ],
      "name": "Gun_Lowpoly"
    },
    {
      "mesh": 4,
      "name": "Gun_Lowpoly_DesertEagle_0"
    }
  ],
  "samplers": [
    {
      "magFilter": 9729,
      "minFilter": 9987,
      "wrapS": 10497,
      "wrapT": 10497
    }
  ],
  "scene": 0,
  "scenes": [
    {
      "name": "Sketchfab_Scene",
      "nodes": [
        0
      ]
    }
  ],
  "textures": [
    {
      "sampler": 0,
      "source": 0
    },
    {
      "sampler": 0,
      "source": 1
    },
    {
      "sampler": 0,
      "source": 2
    }
  ]
}
